<?xml version="1.0" standalone="no"?>
<!DOCTYPE svg PUBLIC "-//W3C//DTD SVG 20010904//EN"
 "http://www.w3.org/TR/2001/REC-SVG-20010904/DTD/svg10.dtd">
<svg version="1.0" xmlns="http://www.w3.org/2000/svg"
 width="700.000000pt" height="700.000000pt" viewBox="0 0 700.000000 700.000000"
 preserveAspectRatio="xMidYMid meet">
<metadata>
Created by potrace 1.11, written by Peter Selinger 2001-2013
</metadata>
<g transform="translate(0.000000,700.000000) scale(0.100000,-0.100000)"
fill="#000000" stroke="none">
<path d="M610 6617 c-57 -21 -115 -82 -130 -136 -5 -20 -10 -149 -10 -287 l0
-250 -232 -460 -231 -459 0 -250 c0 -278 7 -323 66 -443 22 -46 56 -91 107
-142 82 -82 129 -111 235 -145 l70 -23 3 -1421 2 -1421 -22 0 c-174 -2 -225
-8 -279 -34 -66 -31 -132 -97 -162 -164 -20 -43 -22 -65 -24 -269 -3 -211 -2
-224 19 -262 15 -29 36 -48 67 -64 l46 -22 3375 0 c3319 1 3375 1 3404 20 16
11 42 37 57 59 l29 39 -2 226 c-3 207 -5 230 -25 273 -30 66 -93 130 -160 163
-52 26 -70 29 -173 31 -63 2 -118 3 -123 4 -4 0 -6 639 -5 1420 l3 1421 81 28
c45 15 95 38 112 49 16 12 33 22 36 22 3 0 31 23 61 52 71 67 128 157 161 255
26 76 27 85 27 338 l1 260 -232 459 -232 459 0 257 c0 278 -3 296 -56 359 -15
18 -45 42 -68 54 l-41 21 -2369 1 c-1928 0 -2373 -2 -2395 -13 -27 -13 -61
-58 -58 -77 1 -6 -50 -10 -135 -11 -106 0 -138 2 -138 12 0 29 -24 63 -54 76
-23 9 -101 13 -294 13 -232 1 -268 -1 -312 -18z"/>
</g>
</svg>
